<mxfile host="65bd71144e">
    <diagram id="vuNfaqXF0Dl_XcQy8LEj" name="Page-1">
        <mxGraphModel dx="342" dy="549" grid="1" gridSize="10" guides="1" tooltips="1" connect="1" arrows="1" fold="1" page="1" pageScale="1" pageWidth="1169" pageHeight="827" math="0" shadow="0">
            <root>
                <mxCell id="0"/>
                <mxCell id="1" parent="0"/>
                <mxCell id="2" value="Game" style="whiteSpace=wrap;html=1;align=center;" parent="1" vertex="1">
                    <mxGeometry x="870" y="450" width="100" height="40" as="geometry"/>
                </mxCell>
                <mxCell id="3" value="User" style="whiteSpace=wrap;html=1;align=center;" parent="1" vertex="1">
                    <mxGeometry x="250" y="240" width="100" height="40" as="geometry"/>
                </mxCell>
                <mxCell id="4" value="Session" style="whiteSpace=wrap;html=1;align=center;" parent="1" vertex="1">
                    <mxGeometry x="250" y="450" width="100" height="40" as="geometry"/>
                </mxCell>
                <mxCell id="5" value="UserId" style="ellipse;whiteSpace=wrap;html=1;align=center;fontStyle=4;" parent="1" vertex="1">
                    <mxGeometry x="140" y="160" width="100" height="40" as="geometry"/>
                </mxCell>
                <mxCell id="7" value="" style="endArrow=none;html=1;rounded=0;entryX=0;entryY=0;entryDx=0;entryDy=0;exitX=0.5;exitY=1;exitDx=0;exitDy=0;" parent="1" source="5" target="3" edge="1">
                    <mxGeometry relative="1" as="geometry">
                        <mxPoint x="120" y="330" as="sourcePoint"/>
                        <mxPoint x="280" y="330" as="targetPoint"/>
                    </mxGeometry>
                </mxCell>
                <mxCell id="9" value="E-mail" style="ellipse;whiteSpace=wrap;html=1;align=center;" parent="1" vertex="1">
                    <mxGeometry x="250" y="150" width="100" height="40" as="geometry"/>
                </mxCell>
                <mxCell id="10" value="" style="endArrow=none;html=1;rounded=0;entryX=0.5;entryY=1;entryDx=0;entryDy=0;exitX=0.5;exitY=0;exitDx=0;exitDy=0;" parent="1" source="3" target="9" edge="1">
                    <mxGeometry relative="1" as="geometry">
                        <mxPoint x="260" y="350" as="sourcePoint"/>
                        <mxPoint x="420" y="350" as="targetPoint"/>
                    </mxGeometry>
                </mxCell>
                <mxCell id="11" value="Password" style="ellipse;whiteSpace=wrap;html=1;align=center;" parent="1" vertex="1">
                    <mxGeometry x="370" y="160" width="100" height="40" as="geometry"/>
                </mxCell>
                <mxCell id="12" value="" style="endArrow=none;html=1;rounded=0;entryX=0;entryY=1;entryDx=0;entryDy=0;exitX=1;exitY=0;exitDx=0;exitDy=0;" parent="1" source="3" target="11" edge="1">
                    <mxGeometry relative="1" as="geometry">
                        <mxPoint x="330" y="290" as="sourcePoint"/>
                        <mxPoint x="390" y="330" as="targetPoint"/>
                    </mxGeometry>
                </mxCell>
                <mxCell id="15" value="Logged" style="shape=rhombus;perimeter=rhombusPerimeter;whiteSpace=wrap;html=1;align=center;" parent="1" vertex="1">
                    <mxGeometry x="240" y="330" width="120" height="60" as="geometry"/>
                </mxCell>
                <mxCell id="19" value="" style="fontSize=12;html=1;endArrow=ERone;endFill=1;entryX=0.5;entryY=1;entryDx=0;entryDy=0;exitX=0.5;exitY=0;exitDx=0;exitDy=0;" parent="1" source="15" target="3" edge="1">
                    <mxGeometry width="100" height="100" relative="1" as="geometry">
                        <mxPoint x="510" y="510" as="sourcePoint"/>
                        <mxPoint x="610" y="410" as="targetPoint"/>
                    </mxGeometry>
                </mxCell>
                <mxCell id="20" value="" style="fontSize=12;html=1;endArrow=ERzeroToOne;endFill=1;exitX=0.5;exitY=1;exitDx=0;exitDy=0;entryX=0.5;entryY=0;entryDx=0;entryDy=0;" parent="1" source="15" target="4" edge="1">
                    <mxGeometry width="100" height="100" relative="1" as="geometry">
                        <mxPoint x="490" y="520" as="sourcePoint"/>
                        <mxPoint x="590" y="420" as="targetPoint"/>
                    </mxGeometry>
                </mxCell>
                <mxCell id="21" value="SessionId" style="ellipse;whiteSpace=wrap;html=1;align=center;fontStyle=4;" parent="1" vertex="1">
                    <mxGeometry x="120" y="450" width="100" height="40" as="geometry"/>
                </mxCell>
                <mxCell id="22" value="" style="endArrow=none;html=1;rounded=0;entryX=0;entryY=0.5;entryDx=0;entryDy=0;exitX=1;exitY=0.5;exitDx=0;exitDy=0;" parent="1" source="21" target="4" edge="1">
                    <mxGeometry relative="1" as="geometry">
                        <mxPoint x="200" y="210" as="sourcePoint"/>
                        <mxPoint x="260" y="250" as="targetPoint"/>
                    </mxGeometry>
                </mxCell>
                <mxCell id="23" value="EnterDate" style="ellipse;whiteSpace=wrap;html=1;align=center;" parent="1" vertex="1">
                    <mxGeometry x="250" y="520" width="100" height="40" as="geometry"/>
                </mxCell>
                <mxCell id="24" value="" style="endArrow=none;html=1;rounded=0;entryX=0.5;entryY=1;entryDx=0;entryDy=0;exitX=0.5;exitY=0;exitDx=0;exitDy=0;" parent="1" source="23" target="4" edge="1">
                    <mxGeometry relative="1" as="geometry">
                        <mxPoint x="419.5" y="600" as="sourcePoint"/>
                        <mxPoint x="419.5" y="550" as="targetPoint"/>
                    </mxGeometry>
                </mxCell>
                <mxCell id="25" value="Room" style="whiteSpace=wrap;html=1;align=center;" parent="1" vertex="1">
                    <mxGeometry x="870" y="240" width="100" height="40" as="geometry"/>
                </mxCell>
                <mxCell id="27" value="Playing" style="shape=rhombus;perimeter=rhombusPerimeter;whiteSpace=wrap;html=1;align=center;" parent="1" vertex="1">
                    <mxGeometry x="540" y="230" width="120" height="60" as="geometry"/>
                </mxCell>
                <mxCell id="28" value="" style="fontSize=12;html=1;endArrow=ERoneToMany;entryX=1;entryY=0.5;entryDx=0;entryDy=0;exitX=0;exitY=0.5;exitDx=0;exitDy=0;" parent="1" source="27" target="3" edge="1">
                    <mxGeometry width="100" height="100" relative="1" as="geometry">
                        <mxPoint x="550" y="690" as="sourcePoint"/>
                        <mxPoint x="650" y="590" as="targetPoint"/>
                    </mxGeometry>
                </mxCell>
                <mxCell id="30" value="RoomId" style="ellipse;whiteSpace=wrap;html=1;align=center;fontStyle=4;" parent="1" vertex="1">
                    <mxGeometry x="760" y="160" width="100" height="40" as="geometry"/>
                </mxCell>
                <mxCell id="31" value="" style="endArrow=none;html=1;rounded=0;entryX=0.5;entryY=1;entryDx=0;entryDy=0;exitX=0;exitY=0;exitDx=0;exitDy=0;" parent="1" source="25" target="30" edge="1">
                    <mxGeometry relative="1" as="geometry">
                        <mxPoint x="570" y="250" as="sourcePoint"/>
                        <mxPoint x="604.6446609406726" y="204.14213562373095" as="targetPoint"/>
                    </mxGeometry>
                </mxCell>
                <mxCell id="33" value="Type" style="ellipse;whiteSpace=wrap;html=1;align=center;" parent="1" vertex="1">
                    <mxGeometry x="870" y="150" width="100" height="40" as="geometry"/>
                </mxCell>
                <mxCell id="34" value="" style="endArrow=none;html=1;rounded=0;entryX=0.5;entryY=1;entryDx=0;entryDy=0;exitX=0.5;exitY=0;exitDx=0;exitDy=0;" parent="1" source="25" target="33" edge="1">
                    <mxGeometry relative="1" as="geometry">
                        <mxPoint x="880" y="250" as="sourcePoint"/>
                        <mxPoint x="820" y="210" as="targetPoint"/>
                    </mxGeometry>
                </mxCell>
                <mxCell id="35" value="Password" style="ellipse;whiteSpace=wrap;html=1;align=center;" parent="1" vertex="1">
                    <mxGeometry x="980" y="160" width="100" height="40" as="geometry"/>
                </mxCell>
                <mxCell id="36" value="" style="endArrow=none;html=1;rounded=0;entryX=0.5;entryY=1;entryDx=0;entryDy=0;exitX=1;exitY=0;exitDx=0;exitDy=0;" parent="1" source="25" target="35" edge="1">
                    <mxGeometry relative="1" as="geometry">
                        <mxPoint x="930" y="250" as="sourcePoint"/>
                        <mxPoint x="930" y="200" as="targetPoint"/>
                    </mxGeometry>
                </mxCell>
                <mxCell id="40" value="GameId" style="ellipse;whiteSpace=wrap;html=1;align=center;fontStyle=4;" parent="1" vertex="1">
                    <mxGeometry x="1020" y="450" width="100" height="40" as="geometry"/>
                </mxCell>
                <mxCell id="41" value="Mode" style="ellipse;whiteSpace=wrap;html=1;align=center;" parent="1" vertex="1">
                    <mxGeometry x="700" y="490" width="100" height="40" as="geometry"/>
                </mxCell>
                <mxCell id="42" value="Username" style="ellipse;whiteSpace=wrap;html=1;align=center;" parent="1" vertex="1">
                    <mxGeometry x="100" y="240" width="100" height="40" as="geometry"/>
                </mxCell>
                <mxCell id="43" value="" style="endArrow=none;html=1;rounded=0;entryX=0;entryY=0.5;entryDx=0;entryDy=0;exitX=1;exitY=0.5;exitDx=0;exitDy=0;" parent="1" source="42" target="3" edge="1">
                    <mxGeometry relative="1" as="geometry">
                        <mxPoint x="200" y="270" as="sourcePoint"/>
                        <mxPoint x="260" y="270" as="targetPoint"/>
                    </mxGeometry>
                </mxCell>
                <mxCell id="44" value="Name" style="ellipse;whiteSpace=wrap;html=1;align=center;" parent="1" vertex="1">
                    <mxGeometry x="880" y="540" width="100" height="40" as="geometry"/>
                </mxCell>
                <mxCell id="45" value="Instructions" style="ellipse;whiteSpace=wrap;html=1;align=center;" parent="1" vertex="1">
                    <mxGeometry x="980" y="520" width="100" height="40" as="geometry"/>
                </mxCell>
                <mxCell id="46" value="" style="endArrow=none;html=1;rounded=0;entryX=1;entryY=0.5;entryDx=0;entryDy=0;exitX=0;exitY=0.5;exitDx=0;exitDy=0;" parent="1" source="40" target="2" edge="1">
                    <mxGeometry relative="1" as="geometry">
                        <mxPoint x="880" y="250" as="sourcePoint"/>
                        <mxPoint x="820" y="210" as="targetPoint"/>
                    </mxGeometry>
                </mxCell>
                <mxCell id="47" value="" style="endArrow=none;html=1;rounded=0;entryX=1;entryY=0.5;entryDx=0;entryDy=0;exitX=0;exitY=1;exitDx=0;exitDy=0;" parent="1" source="2" target="41" edge="1">
                    <mxGeometry relative="1" as="geometry">
                        <mxPoint x="860" y="500" as="sourcePoint"/>
                        <mxPoint x="840" y="480" as="targetPoint"/>
                    </mxGeometry>
                </mxCell>
                <mxCell id="48" value="" style="endArrow=none;html=1;rounded=0;entryX=0.5;entryY=0;entryDx=0;entryDy=0;exitX=0.5;exitY=1;exitDx=0;exitDy=0;" parent="1" source="2" target="44" edge="1">
                    <mxGeometry relative="1" as="geometry">
                        <mxPoint x="880" y="500" as="sourcePoint"/>
                        <mxPoint x="855.3553390593274" y="535.8578643762689" as="targetPoint"/>
                    </mxGeometry>
                </mxCell>
                <mxCell id="49" value="" style="endArrow=none;html=1;rounded=0;entryX=0.5;entryY=0;entryDx=0;entryDy=0;exitX=1;exitY=1;exitDx=0;exitDy=0;" parent="1" source="2" target="45" edge="1">
                    <mxGeometry relative="1" as="geometry">
                        <mxPoint x="880" y="500" as="sourcePoint"/>
                        <mxPoint x="820" y="530" as="targetPoint"/>
                    </mxGeometry>
                </mxCell>
                <mxCell id="50" value="Ranking" style="shape=rhombus;perimeter=rhombusPerimeter;whiteSpace=wrap;html=1;align=center;" parent="1" vertex="1">
                    <mxGeometry x="540" y="354" width="120" height="60" as="geometry"/>
                </mxCell>
                <mxCell id="51" value="GameRoom" style="shape=rhombus;perimeter=rhombusPerimeter;whiteSpace=wrap;html=1;align=center;" parent="1" vertex="1">
                    <mxGeometry x="860" y="330" width="120" height="60" as="geometry"/>
                </mxCell>
                <mxCell id="53" value="" style="fontSize=12;html=1;endArrow=ERoneToMany;entryX=0.5;entryY=0;entryDx=0;entryDy=0;exitX=0.5;exitY=1;exitDx=0;exitDy=0;" parent="1" source="51" target="2" edge="1">
                    <mxGeometry width="100" height="100" relative="1" as="geometry">
                        <mxPoint x="480" y="660" as="sourcePoint"/>
                        <mxPoint x="580" y="560" as="targetPoint"/>
                    </mxGeometry>
                </mxCell>
                <mxCell id="54" value="" style="fontSize=12;html=1;endArrow=ERoneToMany;entryX=0.5;entryY=1;entryDx=0;entryDy=0;exitX=0.5;exitY=0;exitDx=0;exitDy=0;" parent="1" source="51" target="25" edge="1">
                    <mxGeometry width="100" height="100" relative="1" as="geometry">
                        <mxPoint x="540" y="680" as="sourcePoint"/>
                        <mxPoint x="640" y="580" as="targetPoint"/>
                    </mxGeometry>
                </mxCell>
                <mxCell id="55" value="InitialTimeStamp" style="ellipse;whiteSpace=wrap;html=1;align=center;" parent="1" vertex="1">
                    <mxGeometry x="1010" y="240" width="100" height="40" as="geometry"/>
                </mxCell>
                <mxCell id="56" value="" style="endArrow=none;html=1;rounded=0;entryX=1;entryY=0.5;entryDx=0;entryDy=0;exitX=0;exitY=0.5;exitDx=0;exitDy=0;" parent="1" source="55" target="25" edge="1">
                    <mxGeometry relative="1" as="geometry">
                        <mxPoint x="1030" y="480" as="sourcePoint"/>
                        <mxPoint x="980" y="480" as="targetPoint"/>
                    </mxGeometry>
                </mxCell>
                <mxCell id="59" value="Score" style="ellipse;whiteSpace=wrap;html=1;align=center;" parent="1" vertex="1">
                    <mxGeometry x="490" y="160" width="100" height="40" as="geometry"/>
                </mxCell>
                <mxCell id="61" value="" style="endArrow=none;html=1;rounded=0;entryX=0.5;entryY=1;entryDx=0;entryDy=0;exitX=0;exitY=0;exitDx=0;exitDy=0;" parent="1" source="27" target="59" edge="1">
                    <mxGeometry relative="1" as="geometry">
                        <mxPoint x="880" y="250" as="sourcePoint"/>
                        <mxPoint x="820" y="210" as="targetPoint"/>
                    </mxGeometry>
                </mxCell>
                <mxCell id="62" value="HasLosed" style="ellipse;whiteSpace=wrap;html=1;align=center;" parent="1" vertex="1">
                    <mxGeometry x="620" y="160" width="100" height="40" as="geometry"/>
                </mxCell>
                <mxCell id="63" value="" style="endArrow=none;html=1;rounded=0;entryX=0.5;entryY=1;entryDx=0;entryDy=0;exitX=1;exitY=0;exitDx=0;exitDy=0;" parent="1" source="27" target="62" edge="1">
                    <mxGeometry relative="1" as="geometry">
                        <mxPoint x="610" y="240" as="sourcePoint"/>
                        <mxPoint x="565" y="210" as="targetPoint"/>
                    </mxGeometry>
                </mxCell>
                <mxCell id="64" value="Elo" style="ellipse;whiteSpace=wrap;html=1;align=center;" parent="1" vertex="1">
                    <mxGeometry x="550" y="430" width="100" height="40" as="geometry"/>
                </mxCell>
                <mxCell id="66" value="" style="endArrow=none;html=1;rounded=0;entryX=0.5;entryY=0;entryDx=0;entryDy=0;exitX=0.5;exitY=1;exitDx=0;exitDy=0;" parent="1" source="50" target="64" edge="1">
                    <mxGeometry relative="1" as="geometry">
                        <mxPoint x="880" y="500" as="sourcePoint"/>
                        <mxPoint x="820" y="530" as="targetPoint"/>
                    </mxGeometry>
                </mxCell>
                <mxCell id="67" value="" style="fontSize=12;html=1;endArrow=ERoneToMany;entryX=0;entryY=0.5;entryDx=0;entryDy=0;exitX=1;exitY=0.5;exitDx=0;exitDy=0;" parent="1" source="27" target="25" edge="1">
                    <mxGeometry width="100" height="100" relative="1" as="geometry">
                        <mxPoint x="390" y="740" as="sourcePoint"/>
                        <mxPoint x="490" y="640" as="targetPoint"/>
                    </mxGeometry>
                </mxCell>
                <mxCell id="68" value="" style="fontSize=12;html=1;endArrow=ERoneToMany;entryX=1;entryY=1;entryDx=0;entryDy=0;exitX=0;exitY=0;exitDx=0;exitDy=0;" parent="1" source="50" target="3" edge="1">
                    <mxGeometry width="100" height="100" relative="1" as="geometry">
                        <mxPoint x="430" y="670" as="sourcePoint"/>
                        <mxPoint x="530" y="570" as="targetPoint"/>
                    </mxGeometry>
                </mxCell>
                <mxCell id="69" value="" style="fontSize=12;html=1;endArrow=ERoneToMany;entryX=0;entryY=0.5;entryDx=0;entryDy=0;exitX=1;exitY=1;exitDx=0;exitDy=0;" parent="1" source="50" target="2" edge="1">
                    <mxGeometry width="100" height="100" relative="1" as="geometry">
                        <mxPoint x="550" y="270" as="sourcePoint"/>
                        <mxPoint x="360" y="270" as="targetPoint"/>
                    </mxGeometry>
                </mxCell>
                <mxCell id="72" value="Image" style="ellipse;whiteSpace=wrap;html=1;align=center;" parent="1" vertex="1">
                    <mxGeometry x="760" y="540" width="100" height="40" as="geometry"/>
                </mxCell>
                <mxCell id="73" value="" style="endArrow=none;html=1;rounded=0;entryX=1;entryY=0;entryDx=0;entryDy=0;exitX=0.25;exitY=1;exitDx=0;exitDy=0;" parent="1" source="2" target="72" edge="1">
                    <mxGeometry relative="1" as="geometry">
                        <mxPoint x="880" y="500" as="sourcePoint"/>
                        <mxPoint x="810" y="520" as="targetPoint"/>
                    </mxGeometry>
                </mxCell>
                <mxCell id="74" value="GameData" style="ellipse;whiteSpace=wrap;html=1;align=center;" parent="1" vertex="1">
                    <mxGeometry x="730" y="340" width="100" height="40" as="geometry"/>
                </mxCell>
                <mxCell id="75" value="" style="endArrow=none;html=1;rounded=0;exitX=1;exitY=0.5;exitDx=0;exitDy=0;entryX=0;entryY=0.5;entryDx=0;entryDy=0;" parent="1" source="74" target="51" edge="1">
                    <mxGeometry relative="1" as="geometry">
                        <mxPoint x="1040" y="330" as="sourcePoint"/>
                        <mxPoint x="850" y="320" as="targetPoint"/>
                    </mxGeometry>
                </mxCell>
            </root>
        </mxGraphModel>
    </diagram>
</mxfile>